<svg height="75" width="200" xmlns="http://www.w3.org/2000/svg"><g transform="translate(-446.276855 -536.592051)"><g stroke="#000" stroke-linecap="square"><path d="m471.80249 559.25061h29.41418" fill="none" stroke-miterlimit="10.433" stroke-width="2.003842"/><path d="m576.81373639 574.0918081h43.39302548" fill="none" stroke-miterlimit="10.433" stroke-width="2.01543657"/><path d="m.62119374.03372266h.0309373c.00152777 0 .00324651.00019097.00515622.00057292.00190971.00038194.00381942.00114582.00571177.00229165.00190971.00112846.00381942.00286456.00572913.00513885.00190971.00229166.00324651.00498261.00401039.00802079.00076388.00305553.00076388.00611107 0 .0091666-.00076388.00305554-.00210068.00572913-.00401039.00802079-.00190971.00227429-.00381942.00399303-.00572913.00515621-.00189235.00112847-.00380206.00189235-.00571177.00227429-.00190971.00038195-.00362845.00057292-.00515622.00057292-.00152776 0-.00706592 0-.01661447 0s-.01432283 0-.01432283 0 0-.00687496 0-.02062487z" fill="#fff" stroke-miterlimit="10.43" stroke-width=".002781" transform="matrix(1438.57 0 0 1438.57 -392.102 495.9343)"/><path d="m471.80249 588.93311h29.41418" fill="none" stroke-miterlimit="10.433" stroke-width="2.003842"/></g><text font-family="Bitstream Vera Sans" font-size="12" x="453.62256" y="565.81165"><tspan font-size="18" font-weight="bold" x="453.62256" y="565.81165">A</tspan></text><text font-family="Bitstream Vera Sans" font-size="12" x="453.53467" y="595.49249"><tspan font-size="18" font-weight="bold" x="453.53467" y="595.49249">B</tspan></text><text font-family="Bitstream Vera Sans" font-size="12" x="624.44678" y="579.45776"><tspan font-size="18" font-weight="bold" x="624.44678" y="579.45776">Q</tspan></text></g></svg>