<?xml version="1.0" encoding="UTF-8"?>
<svg id="Layer_1" xmlns="http://www.w3.org/2000/svg" xmlns:xlink="http://www.w3.org/1999/xlink" viewBox="0 0 477 396.75">
  <defs>
    <style>
      .cls-1, .cls-2, .cls-3 {
        fill: none;
      }

      .cls-4 {
        font-size: 13px;
      }

      .cls-4, .cls-5, .cls-6 {
        font-family: Helvetica, Helvetica;
      }

      .cls-5 {
        font-size: 11px;
      }

      .cls-7 {
        clip-path: url(#clippath-1);
      }

      .cls-8 {
        letter-spacing: 0em;
      }

      .cls-9 {
        letter-spacing: 0em;
      }

      .cls-10 {
        fill: #87ceeb;
      }

      .cls-2 {
        stroke-width: 1.07px;
      }

      .cls-2, .cls-3 {
        stroke: #ebebeb;
        stroke-linejoin: round;
      }

      .cls-11 {
        letter-spacing: -.12em;
      }

      .cls-12 {
        letter-spacing: -.12em;
      }

      .cls-13 {
        letter-spacing: -.12em;
      }

      .cls-14 {
        letter-spacing: -.03em;
      }

      .cls-15 {
        letter-spacing: -.02em;
      }

      .cls-16 {
        letter-spacing: -.01em;
      }

      .cls-17 {
        letter-spacing: -.01em;
      }

      .cls-18 {
        letter-spacing: -.04em;
      }

      .cls-19 {
        letter-spacing: -.03em;
      }

      .cls-20 {
        letter-spacing: -.03em;
      }

      .cls-21 {
        letter-spacing: 0em;
      }

      .cls-22 {
        letter-spacing: .02em;
      }

      .cls-23 {
        letter-spacing: .01em;
      }

      .cls-24 {
        letter-spacing: .01em;
      }

      .cls-25 {
        letter-spacing: .03em;
      }

      .cls-3 {
        stroke-width: .53px;
      }

      .cls-6 {
        fill: #4d4d4d;
        font-size: 9px;
      }
    </style>
    <clipPath id="clippath-1">
      <rect class="cls-1" x="75.21" y="23.08" width="396.31" height="342.16"/>
    </clipPath>
  </defs>
  <g class="cls-7">
    <line class="cls-3" x1="138.26" y1="365.24" x2="138.26" y2="23.07"/>
    <line class="cls-3" x1="228.33" y1="365.24" x2="228.33" y2="23.07"/>
    <line class="cls-3" x1="318.4" y1="365.24" x2="318.4" y2="23.07"/>
    <line class="cls-3" x1="408.47" y1="365.24" x2="408.47" y2="23.07"/>
    <line class="cls-2" x1="75.21" y1="356.75" x2="471.52" y2="356.75"/>
    <line class="cls-2" x1="75.21" y1="342.61" x2="471.52" y2="342.61"/>
    <line class="cls-2" x1="75.21" y1="328.47" x2="471.52" y2="328.47"/>
    <line class="cls-2" x1="75.21" y1="314.33" x2="471.52" y2="314.33"/>
    <line class="cls-2" x1="75.21" y1="300.2" x2="471.52" y2="300.2"/>
    <line class="cls-2" x1="75.21" y1="286.06" x2="471.52" y2="286.06"/>
    <line class="cls-2" x1="75.21" y1="271.92" x2="471.52" y2="271.92"/>
    <line class="cls-2" x1="75.21" y1="257.78" x2="471.52" y2="257.78"/>
    <line class="cls-2" x1="75.21" y1="243.64" x2="471.52" y2="243.64"/>
    <line class="cls-2" x1="75.21" y1="229.5" x2="471.52" y2="229.5"/>
    <line class="cls-2" x1="75.21" y1="215.36" x2="471.52" y2="215.36"/>
    <line class="cls-2" x1="75.21" y1="201.22" x2="471.52" y2="201.22"/>
    <line class="cls-2" x1="75.21" y1="187.08" x2="471.52" y2="187.08"/>
    <line class="cls-2" x1="75.21" y1="172.94" x2="471.52" y2="172.94"/>
    <line class="cls-2" x1="75.21" y1="158.81" x2="471.52" y2="158.81"/>
    <line class="cls-2" x1="75.21" y1="144.67" x2="471.52" y2="144.67"/>
    <line class="cls-2" x1="75.21" y1="130.53" x2="471.52" y2="130.53"/>
    <line class="cls-2" x1="75.21" y1="116.39" x2="471.52" y2="116.39"/>
    <line class="cls-2" x1="75.21" y1="102.25" x2="471.52" y2="102.25"/>
    <line class="cls-2" x1="75.21" y1="88.11" x2="471.52" y2="88.11"/>
    <line class="cls-2" x1="75.21" y1="73.97" x2="471.52" y2="73.97"/>
    <line class="cls-2" x1="75.21" y1="59.83" x2="471.52" y2="59.83"/>
    <line class="cls-2" x1="75.21" y1="45.69" x2="471.52" y2="45.69"/>
    <line class="cls-2" x1="75.21" y1="31.55" x2="471.52" y2="31.55"/>
    <line class="cls-2" x1="93.23" y1="365.24" x2="93.23" y2="23.07"/>
    <line class="cls-2" x1="183.3" y1="365.24" x2="183.3" y2="23.07"/>
    <line class="cls-2" x1="273.37" y1="365.24" x2="273.37" y2="23.07"/>
    <line class="cls-2" x1="363.44" y1="365.24" x2="363.44" y2="23.07"/>
    <line class="cls-2" x1="453.51" y1="365.24" x2="453.51" y2="23.07"/>
    <rect class="cls-10" x="93.23" y="25.19" width="360.28" height="12.73"/>
    <rect class="cls-10" x="93.23" y="39.33" width="252.2" height="12.73"/>
    <rect class="cls-10" x="93.23" y="67.6" width="198.15" height="12.73"/>
    <rect class="cls-10" x="93.23" y="53.46" width="198.15" height="12.73"/>
    <rect class="cls-10" x="93.23" y="95.88" width="180.14" height="12.73"/>
    <rect class="cls-10" x="93.23" y="81.74" width="180.14" height="12.73"/>
    <rect class="cls-10" x="93.23" y="124.16" width="162.13" height="12.73"/>
    <rect class="cls-10" x="93.23" y="110.02" width="162.13" height="12.73"/>
    <rect class="cls-10" x="93.23" y="152.44" width="90.07" height="12.73"/>
    <rect class="cls-10" x="93.23" y="138.3" width="90.07" height="12.73"/>
    <rect class="cls-10" x="93.23" y="223.13" width="72.06" height="12.73"/>
    <rect class="cls-10" x="93.23" y="208.99" width="72.06" height="12.73"/>
    <rect class="cls-10" x="93.23" y="194.85" width="72.06" height="12.73"/>
    <rect class="cls-10" x="93.23" y="180.72" width="72.06" height="12.73"/>
    <rect class="cls-10" x="93.23" y="166.58" width="72.06" height="12.73"/>
    <rect class="cls-10" x="93.23" y="293.83" width="54.04" height="12.73"/>
    <rect class="cls-10" x="93.23" y="279.69" width="54.04" height="12.73"/>
    <rect class="cls-10" x="93.23" y="265.55" width="54.04" height="12.73"/>
    <rect class="cls-10" x="93.23" y="251.41" width="54.04" height="12.73"/>
    <rect class="cls-10" x="93.23" y="237.27" width="54.04" height="12.73"/>
    <rect class="cls-10" x="93.23" y="336.25" width="36.03" height="12.73"/>
    <rect class="cls-10" x="93.23" y="322.11" width="36.03" height="12.73"/>
    <rect class="cls-10" x="93.23" y="307.97" width="36.03" height="12.73"/>
    <rect class="cls-10" x="93.23" y="350.38" width="18.01" height="12.73"/>
  </g>
  <text class="cls-6" transform="translate(36.77 359.98)"><tspan x="0" y="0">Ecuador</tspan></text>
  <text class="cls-6" transform="translate(42.05 345.84)"><tspan x="0" y="0">M</tspan><tspan class="cls-19" x="7.5" y="0">e</tspan><tspan x="12.23" y="0">xico</tspan></text>
  <text class="cls-6" transform="translate(17.44 331.7)"><tspan x="0" y="0">N</tspan><tspan class="cls-15" x="6.5" y="0">e</tspan><tspan x="11.32" y="0">w Zealand</tspan></text>
  <text class="cls-6" transform="translate(47.27 317.57)"><tspan x="0" y="0">Spain</tspan></text>
  <text class="cls-6" transform="translate(26.27 303.43)"><tspan x="0" y="0">Costa Rica</tspan></text>
  <text class="cls-6" transform="translate(24.72 289.29)"><tspan x="0" y="0">I</tspan><tspan class="cls-14" x="2.5" y="0">v</tspan><tspan x="6.78" y="0">o</tspan><tspan class="cls-25" x="11.78" y="0">r</tspan><tspan x="15.04" y="0">y Coast</tspan></text>
  <text class="cls-6" transform="translate(21.63 275.15)"><tspan x="0" y="0">Nethe</tspan><tspan class="cls-24" x="24.02" y="0">r</tspan><tspan x="27.14" y="0">lands</tspan></text>
  <text class="cls-6" transform="translate(41.64 261.01)"><tspan x="0" y="0">Nige</tspan><tspan class="cls-24" x="18.51" y="0">r</tspan><tspan x="21.63" y="0">ia</tspan></text>
  <text class="cls-6" transform="translate(35.77 246.87)"><tspan x="0" y="0">Thailand</tspan></text>
  <text class="cls-6" transform="translate(47.87 232.73)"><tspan x="0" y="0">B</tspan><tspan class="cls-21" x="6" y="0">r</tspan><tspan x="8.91" y="0">azil</tspan></text>
  <text class="cls-6" transform="translate(38.76 218.59)"><tspan x="0" y="0">Canada</tspan></text>
  <text class="cls-6" transform="translate(46.77 204.45)"><tspan x="0" y="0">China</tspan></text>
  <text class="cls-6" transform="translate(32.28 190.31)"><tspan x="0" y="0">Colombia</tspan></text>
  <text class="cls-6" transform="translate(20.61 176.18)"><tspan x="0" y="0">South </tspan><tspan class="cls-18" x="26.02" y="0">K</tspan><tspan x="31.66" y="0">orea</tspan></text>
  <text class="cls-6" transform="translate(35.63 162.04)"><tspan class="cls-19" x="0" y="0">A</tspan><tspan x="5.73" y="0">ust</tspan><tspan class="cls-21" x="17.74" y="0">r</tspan><tspan x="20.65" y="0">alia</tspan></text>
  <text class="cls-6" transform="translate(37.86 147.9)"><tspan x="0" y="0">S</tspan><tspan class="cls-21" x="6" y="0">w</tspan><tspan x="12.41" y="0">eden</tspan></text>
  <text class="cls-6" transform="translate(28.27 133.76)"><tspan x="0" y="0">Cameroon</tspan></text>
  <text class="cls-6" transform="translate(40.19 119.62)"><tspan x="0" y="0">Nor</tspan><tspan class="cls-16" x="14.5" y="0">w</tspan><tspan class="cls-19" x="20.87" y="0">a</tspan><tspan x="25.6" y="0">y</tspan></text>
  <text class="cls-6" transform="translate(37.26 105.48)"><tspan x="0" y="0">England</tspan></text>
  <text class="cls-6" transform="translate(42.36 91.34)"><tspan x="0" y="0">F</tspan><tspan class="cls-21" x="5.5" y="0">r</tspan><tspan x="8.4" y="0">ance</tspan></text>
  <text class="cls-6" transform="translate(45.95 77.2)"><tspan class="cls-15" x="0" y="0">J</tspan><tspan x="4.32" y="0">apan</tspan></text>
  <text class="cls-6" transform="translate(23.77 63.06)"><tspan x="0" y="0">Swit</tspan><tspan class="cls-17" x="17" y="0">z</tspan><tspan x="21.38" y="0">e</tspan><tspan class="cls-24" x="26.38" y="0">r</tspan><tspan x="29.5" y="0">land</tspan></text>
  <text class="cls-6" transform="translate(51.78 48.92)"><tspan x="0" y="0">USA</tspan></text>
  <text class="cls-6" transform="translate(33.18 34.79)"><tspan x="0" y="0">Ge</tspan><tspan class="cls-22" x="12.01" y="0">r</tspan><tspan x="15.22" y="0">ma</tspan><tspan class="cls-16" x="27.72" y="0">n</tspan><tspan x="32.59" y="0">y</tspan></text>
  <text class="cls-6" transform="translate(90.73 376.63)"><tspan x="0" y="0">0</tspan></text>
  <text class="cls-6" transform="translate(180.8 376.63)"><tspan x="0" y="0">5</tspan></text>
  <text class="cls-6" transform="translate(268.36 376.63)"><tspan x="0" y="0">10</tspan></text>
  <text class="cls-6" transform="translate(358.43 376.63)"><tspan x="0" y="0">15</tspan></text>
  <text class="cls-6" transform="translate(448.5 376.63)"><tspan x="0" y="0">20</tspan></text>
  <text class="cls-5" transform="translate(245.91 388.96)"><tspan class="cls-12" x="0" y="0">T</tspan><tspan class="cls-8" x="5.41" y="0">otal Goals</tspan></text>
  <text class="cls-5" transform="translate(13.38 207.55) rotate(-90)"><tspan class="cls-11" x="0" y="0">T</tspan><tspan x="5.41" y="0">eam</tspan></text>
  <text class="cls-4" transform="translate(75.21 14.81)"><tspan class="cls-13" x="0" y="0">T</tspan><tspan x="6.39" y="0">otal Goals Scored </tspan><tspan class="cls-15" x="113.34" y="0">b</tspan><tspan x="120.31" y="0">y Each </tspan><tspan class="cls-13" x="163.66" y="0">T</tspan><tspan x="170.06" y="0">eam in the 2014 and 2015 </tspan><tspan class="cls-20" x="324.74" y="0">W</tspan><tspan x="336.63" y="0">o</tspan><tspan class="cls-23" x="343.86" y="0">r</tspan><tspan class="cls-9" x="348.37" y="0">ld Cup</tspan></text>
</svg>